<svg xmlns="http://www.w3.org/2000/svg" viewBox="-61 -7699 156 115.94">
  <defs>
    <style>
      .cls-1 {
        fill: #8c7ae6;
      }
    </style>
  </defs>
  <path id="colibri" class="cls-1" d="M155.965,141.409h0a.094.094,0,0,0,.031-.061c.03-.03.03-.061.061-.122a.106.106,0,0,1,.031-.061c.03-.03.03-.061.061-.122,0-.03.03-.061.03-.091s.031-.061.031-.091.03-.061.03-.091a.112.112,0,0,1,.03-.091.23.23,0,0,1,.03-.122v-.61a.23.23,0,0,0-.03-.122.112.112,0,0,0-.03-.091c0-.03-.03-.091-.03-.122a.106.106,0,0,0-.031-.061c0-.03-.03-.091-.03-.122s-.031-.061-.031-.091c-.03-.03-.03-.061-.061-.091s-.03-.061-.061-.091-.031-.061-.061-.061c-.031-.03-.061-.061-.061-.091l-.061-.061-.091-.091-.061-.061c-.03-.031-.061-.061-.091-.061-.03-.03-.061-.03-.061-.061-.03-.03-.061-.03-.061-.061-.031-.03-.061-.061-.091-.061a.03.03,0,0,1-.03-.031l-33.413-23.078a.03.03,0,0,1-.03-.031.106.106,0,0,1-.061-.03c-.03,0-.03-.03-.061-.03a.106.106,0,0,1-.061-.03c-.031,0-.031-.03-.061-.03a.03.03,0,0,1-.03-.031c-.03,0-.061-.03-.091-.03h-.061c-.03,0-.091-.03-.122-.03h-.061a.183.183,0,0,1-.122-.03h-.671a.112.112,0,0,0-.091.03c-.03,0-.061.03-.091.03s-.061.03-.091.03-.03,0-.061.031h-.03c-.03,0-.061.03-.091.03s-.03.03-.061.03h0l-31.4,16.737L69.9,109.276h0l-.03-.03c0-.03-.03-.03-.03-.061l-.091-.091-.061-.061-.091-.091c-.03-.031-.061-.031-.091-.061h0c-.03,0-.03-.03-.061-.03-.03-.03-.061-.03-.091-.061a.106.106,0,0,1-.061-.03.112.112,0,0,0-.091-.03c-.03,0-.061-.03-.091-.03s-.061-.03-.091-.03-.061-.031-.091-.031h0a1284.21,1284.21,0,0,1-.183-.061h-.03L7.312,97.6h-.7a.112.112,0,0,0-.091.03.112.112,0,0,0-.091.03c-.03,0-.061.03-.091.03s-.061.03-.091.03-.061.03-.091.03-.061.03-.091.03-.061.03-.091.061-.061.03-.091.061-.061.03-.091.061-.061.03-.091.061c-.03,0-.03.03-.061.03l-.03.03-.091.091-.061.061c-.03.03-.061.061-.061.091l-.061.061c-.03.03-.03.061-.061.091s-.03.061-.061.091-.03.061-.061.091-.03.061-.061.091a.112.112,0,0,0-.03.091c0,.03-.03.061-.03.091s-.03.061-.03.091-.03.061-.03.091-.03.061-.03.091-.03.061-.03.122v.732a1760.778,1760.778,0,0,0,.061.183c0,.031.03.061.03.091s.03.061.03.091.03.061.03.091.03.061.03.091.03.061.061.091.03.061.061.091.03.061.061.091.03.061.061.091c0,.03.03.03.03.061l13.109,16.4H2.007a.231.231,0,0,0-.122.03.112.112,0,0,0-.091.03c-.03,0-.061.031-.122.031-.03,0-.061.03-.091.03s-.061.031-.091.031-.061.03-.091.03-.061.03-.091.061-.061.03-.091.061-.061.031-.061.061c-.03.031-.061.031-.091.061S1,117.9,1,117.935c-.03.031-.061.061-.091.061l-.061.061c-.03.03-.03.061-.061.061-.03.031-.061.061-.061.091l-.03.03a.03.03,0,0,1-.03.031c-.03.03-.03.061-.061.091a.106.106,0,0,1-.03.061c-.03.03-.03.061-.061.091,0,.03-.03.061-.03.091s-.03.061-.03.091-.03.061-.03.091-.03.061-.03.091-.03.061-.03.091a.112.112,0,0,1-.03.091.183.183,0,0,1-.03.122v.61a.23.23,0,0,0,.03.122.112.112,0,0,0,.03.091c0,.031.03.061.03.122,0,.03.03.061.03.091s.03.061.03.091.03.061.03.091.03.061.061.091.03.061.061.091.03.061.061.061c.03.03.03.061.061.091s.03.061.061.061c.03.031.061.061.061.091l.061.061c.03.03.061.03.061.061.03.03.061.061.091.061l.03.03,47.224,34.358-8.475,55.7v.03h0v.031a.387.387,0,0,1-.03.183v.366a.183.183,0,0,0,.03.122.112.112,0,0,0,.03.091c0,.03.03.091.03.122s0,.061.03.061c0,.03.03.061.03.091s.03.061.03.091.03.061.03.091c.03.03.03.061.061.091a.106.106,0,0,0,.03.061c.03.03.03.061.061.091,0,.03.03.03.03.061l.091.091.061.061.091.091c.03.031.061.031.061.061.03.03.061.061.091.061.03.03.061.061.091.061s.03.03.061.03c.061.03.091.061.152.091h.03c.061.031.152.061.213.091.03,0,.03,0,.061.03a.275.275,0,0,0,.152.031,285.359,285.359,0,0,1,.183.061h.03c.091,0,.183.03.274.03h0a.594.594,0,0,0,.244-.03h.061a2.285,2.285,0,0,0,.488-.122.03.03,0,0,0,.03-.03.764.764,0,0,0,.213-.122l.03-.03c.061-.03.122-.091.183-.122.03,0,.03-.03.061-.03.061-.061.122-.091.183-.152l.03-.031a.807.807,0,0,0,.152-.183h0a1.7,1.7,0,0,0,.152-.244v-.03l15.03-30.029,49.754-21.645a.03.03,0,0,0,.03-.03c.03-.03.091-.03.122-.061h.03l.03-.03c.03-.03.061-.03.091-.061.03,0,.03-.03.061-.03l.031-.03.061-.061h.031l.061-.061.061-.061h0a.03.03,0,0,0,.03-.03l.03-.03.03-.031.061-.061.061-.061.03-.031a344.34,344.34,0,0,0,.061-.061h0l.061-.061v-.03a.112.112,0,0,0,.03-.091.106.106,0,0,1,.03-.061h0c0-.03.03-.061.03-.091a.106.106,0,0,1,.03-.061h0c0-.03.03-.061.03-.091h0v-.061h0l9.237-29.237L154.2,142.354h.274c.061,0,.122-.03.183-.03.03,0,.03,0,.061-.031.061-.03.122-.03.183-.061.031,0,.031,0,.061-.03.061-.03.152-.061.213-.091h0a.637.637,0,0,0,.183-.122l.061-.061c.03-.03.091-.061.122-.091l.061-.061.152-.152.03-.03A.517.517,0,0,0,155.965,141.409Zm-38.627-20.03-10.487,33.23L91.12,135.373ZM11.793,102.63,65.328,112.2l-15.3,38.261Zm91.216,53.839L53.56,152.659,68.8,114.612ZM58.621,177.963l-5.3-21.188,45.913,3.536Zm-3.6,2.622-9.146,18.292,5.244-33.993ZM39.475,143.818,8.714,121.441H21.58Zm82.5-23.475,26.158,16.981L120.173,126.1Z" transform="translate(-61.3 -7796.6)"/>
</svg>
