<svg xmlns="http://www.w3.org/2000/svg" viewBox="-14595.813 -4653.858 831.791 241.858">
  <defs>
    <style>
      .cls-1, .cls-6 {
        fill: none;
      }

      .cls-1, .cls-3 {
        stroke: #353b48;
        stroke-width: 5px;
      }

      .cls-2 {
        fill: #353b48;
      }

      .cls-3 {
        fill: #fff;
      }

      .cls-4 {
        fill: #2f3640;
      }

      .cls-5 {
        stroke: none;
      }
    </style>
  </defs>
  <g id="Group_48" data-name="Group 48" transform="translate(-15586 -6024)">
    <g id="Group_1" data-name="Group 1" transform="translate(0 -37)">
      <path id="Path_1" data-name="Path 1" class="cls-1" d="M2648.417,987.8s165.156-85.4,412.821,68.322,415.623-156.57,415.623-156.57" transform="translate(-1657.083 508.776)"/>
      <circle id="Ellipse_1" data-name="Ellipse 1" class="cls-2" cx="15.5" cy="15.5" r="15.5" transform="translate(1036 1464)"/>
      <circle id="Ellipse_2" data-name="Ellipse 2" class="cls-2" cx="10" cy="10" r="10" transform="translate(1184 1470)"/>
      <circle id="Ellipse_3" data-name="Ellipse 3" class="cls-2" cx="15.5" cy="15.5" r="15.5" transform="translate(1319 1511)"/>
      <g id="Ellipse_4" data-name="Ellipse 4" class="cls-3" transform="translate(1550 1592)">
        <circle class="cls-5" cx="15.5" cy="15.5" r="15.5"/>
        <circle class="cls-6" cx="15.5" cy="15.5" r="13"/>
      </g>
      <g id="Ellipse_5" data-name="Ellipse 5" class="cls-3" transform="translate(1698 1530)">
        <circle class="cls-5" cx="10" cy="10" r="10"/>
        <circle class="cls-6" cx="10" cy="10" r="7.5"/>
      </g>
      <g id="Ellipse_6" data-name="Ellipse 6" class="cls-3" transform="translate(1774 1439)">
        <circle class="cls-5" cx="15.5" cy="15.5" r="15.5"/>
        <circle class="cls-6" cx="15.5" cy="15.5" r="13"/>
      </g>
      <path id="colibri" class="cls-4" d="M272.853,174.305h0a.165.165,0,0,0,.053-.107c.053-.053.053-.107.107-.214a.186.186,0,0,1,.053-.107c.053-.053.053-.107.107-.214,0-.053.053-.107.053-.16s.053-.107.053-.16.053-.107.053-.16a.2.2,0,0,1,.053-.16.4.4,0,0,1,.053-.214v-1.068a.4.4,0,0,0-.053-.214.2.2,0,0,0-.053-.16c0-.053-.053-.16-.053-.214a.186.186,0,0,0-.053-.107c0-.053-.053-.16-.053-.214s-.053-.107-.053-.16c-.053-.053-.053-.107-.107-.16s-.053-.107-.107-.16-.053-.107-.107-.107c-.053-.053-.107-.107-.107-.16l-.107-.107-.16-.16-.107-.107c-.053-.053-.107-.107-.16-.107-.053-.053-.107-.053-.107-.107-.053-.053-.107-.053-.107-.107-.053-.053-.107-.107-.16-.107a.052.052,0,0,1-.053-.053l-58.5-40.408a.052.052,0,0,1-.053-.053.186.186,0,0,1-.107-.053c-.053,0-.053-.053-.107-.053a.186.186,0,0,1-.107-.053c-.053,0-.053-.053-.107-.053a.052.052,0,0,1-.053-.053c-.053,0-.107-.053-.16-.053h-.107c-.053,0-.16-.053-.214-.053h-.107a.321.321,0,0,1-.214-.053H210.72a.2.2,0,0,0-.16.053c-.053,0-.107.053-.16.053s-.107.053-.16.053-.053,0-.107.053h-.053c-.053,0-.107.053-.16.053s-.053.053-.107.053h0l-54.98,29.3-32.668-39.927h0l-.053-.053c0-.053-.053-.053-.053-.107l-.16-.16-.107-.107-.16-.16c-.053-.053-.107-.053-.16-.107h0c-.053,0-.053-.053-.107-.053-.053-.053-.107-.053-.16-.107a.186.186,0,0,1-.107-.053.2.2,0,0,0-.16-.053c-.053,0-.107-.053-.16-.053s-.107-.053-.16-.053-.107-.053-.16-.053h0a908.509,908.509,0,0,1-.32-.107h-.053L12.577,97.6H11.349a.2.2,0,0,0-.16.053.2.2,0,0,0-.16.053c-.053,0-.107.053-.16.053s-.107.053-.16.053-.107.053-.16.053-.107.053-.16.053-.107.053-.16.107-.107.053-.16.107-.107.053-.16.107-.107.053-.16.107c-.053,0-.053.053-.107.053l-.053.053-.16.16-.107.107c-.053.053-.107.107-.107.16l-.107.107c-.053.053-.053.107-.107.16s-.053.107-.107.16-.053.107-.107.16-.053.107-.107.16a.2.2,0,0,0-.053.16c0,.053-.053.107-.053.16s-.053.107-.053.16-.053.107-.053.16-.053.107-.053.16-.053.107-.053.214v1.281a5904.645,5904.645,0,0,0,.107.32c0,.053.053.107.053.16s.053.107.053.16.053.107.053.16.053.107.053.16.053.107.107.16.053.107.107.16.053.107.107.16.053.107.107.16c0,.053.053.053.053.107L32.114,132.35H3.289a.4.4,0,0,0-.214.053.2.2,0,0,0-.16.053c-.053,0-.107.053-.214.053-.053,0-.107.053-.16.053s-.107.053-.16.053-.107.053-.16.053-.107.053-.16.107-.107.053-.16.107-.107.053-.107.107c-.053.053-.107.053-.16.107s-.107.053-.107.107c-.053.053-.107.107-.16.107l-.107.107c-.053.053-.053.107-.107.107-.053.053-.107.107-.107.16l-.053.053a.052.052,0,0,1-.053.053c-.053.053-.053.107-.107.16a.186.186,0,0,1-.053.107c-.053.053-.053.107-.107.16,0,.053-.053.107-.053.16s-.053.107-.053.16-.053.107-.053.16-.053.107-.053.16-.053.107-.053.16a.2.2,0,0,1-.053.16.321.321,0,0,1-.053.214v1.068a.4.4,0,0,0,.053.214.2.2,0,0,0,.053.16c0,.053.053.107.053.214,0,.053.053.107.053.16s.053.107.053.16.053.107.053.16.053.107.107.16.053.107.107.16.053.107.107.107c.053.053.053.107.107.16s.053.107.107.107c.053.053.107.107.107.16l.107.107c.053.053.107.053.107.107.053.053.107.107.16.107l.053.053,82.684,60.158L69.532,296.436v.053h0v.053a.677.677,0,0,1-.053.32v.641a.321.321,0,0,0,.053.214.2.2,0,0,0,.053.16c0,.053.053.16.053.214s0,.107.053.107c0,.053.053.107.053.16s.053.107.053.16.053.107.053.16c.053.053.053.107.107.16a.186.186,0,0,0,.053.107c.053.053.053.107.107.16,0,.053.053.053.053.107l.16.16.107.107.16.16c.053.053.107.053.107.107.053.053.107.107.16.107.053.053.107.107.16.107s.053.053.107.053c.107.053.16.107.267.16h.053c.107.053.267.107.374.16.053,0,.053,0,.107.053a.481.481,0,0,0,.267.053,492.095,492.095,0,0,1,.32.107h.053c.16,0,.32.053.48.053h0a1.041,1.041,0,0,0,.427-.053h.107a4,4,0,0,0,.854-.214.052.052,0,0,0,.053-.053,1.339,1.339,0,0,0,.374-.214l.053-.053c.107-.053.214-.16.32-.214.053,0,.053-.053.107-.053.107-.107.214-.16.32-.267l.053-.053a1.414,1.414,0,0,0,.267-.32h0a2.978,2.978,0,0,0,.267-.427v-.053l26.316-52.578,87.114-37.9a.052.052,0,0,0,.053-.053c.053-.053.16-.053.214-.107h.053l.053-.053c.053-.053.107-.053.16-.107.053,0,.053-.053.107-.053l.053-.053.107-.107h.053l.107-.107.107-.107h0a.052.052,0,0,0,.053-.053l.053-.053.053-.053.107-.107.107-.107.053-.053a528.2,528.2,0,0,1,.107-.107h0l.107-.107v-.053a.2.2,0,0,0,.053-.16.186.186,0,0,1,.053-.107h0c0-.053.053-.107.053-.16a.186.186,0,0,1,.053-.107h0c0-.053.053-.107.053-.16h0v-.107h0l16.174-51.19,61.92,21.245h.48c.107,0,.214-.053.32-.053.053,0,.053,0,.107-.053.107-.053.214-.053.32-.107.053,0,.053,0,.107-.053.107-.053.267-.107.374-.16h0a1.117,1.117,0,0,0,.32-.214l.107-.107c.053-.053.16-.107.214-.16l.107-.107.267-.267.053-.053A.906.906,0,0,0,272.853,174.305Zm-67.631-35.07-18.362,58.183-27.544-33.682Zm-184.8-32.828,93.733,16.761-26.8,66.991Zm159.71,94.267L93.553,194l26.689-66.617Zm-77.72,37.632-9.288-37.1,80.389,6.192Zm-6.3,4.591L80.1,274.925l9.181-59.517ZM68.892,178.522l-53.859-39.18H37.558Zm144.443-41.1,45.8,29.732-48.948-19.643Z" transform="translate(1356.7 1348.4)"/>
    </g>
  </g>
</svg>
