<svg xmlns="http://www.w3.org/2000/svg" viewBox="0 0 556.16 115.93"><defs><style>.cls-1{fill:#8c7ae6;}.cls-2{isolation:isolate;}</style></defs><title>Asset 1</title><g id="Layer_2" data-name="Layer 2"><g id="Layer_1-2" data-name="Layer 1"><g id="Group_97" data-name="Group 97"><path id="colibri" class="cls-1" d="M555.83,43.81h0l0-.06s0-.06.06-.12a.06.06,0,0,1,0-.06s0-.07.06-.13,0-.06,0-.09,0-.06,0-.09,0-.06,0-.09a.14.14,0,0,1,0-.09.24.24,0,0,1,0-.12v-.61a.24.24,0,0,0,0-.12.17.17,0,0,0,0-.1s0-.09,0-.12a.09.09,0,0,0,0-.06s0-.09,0-.12,0-.06,0-.09,0-.06-.06-.09,0-.06-.06-.09,0-.06-.06-.06a.15.15,0,0,1-.07-.1l-.06-.06-.09-.09-.06-.06s-.06-.06-.09-.06-.06,0-.06-.06-.06,0-.06-.06-.06-.06-.09-.06a0,0,0,0,1,0,0h0L521.77,17.84a0,0,0,0,1,0,0h0l-.06,0s0,0-.06,0l-.06,0s0,0-.06,0a0,0,0,0,1,0,0h0l-.09,0h-.06l-.12,0h-.06a.28.28,0,0,1-.13,0h-.67a.09.09,0,0,0-.09,0s-.06,0-.09,0-.06,0-.09,0,0,0-.06,0h0l-.09,0s0,0-.06,0h0l-31.4,16.73-18.67-22.8h0l0,0s0,0,0-.06l-.09-.1-.06-.06-.09-.09s-.06,0-.09-.06h0s0,0-.06,0-.07,0-.1-.06l-.06,0a.12.12,0,0,0-.09,0s-.06,0-.09,0-.06,0-.09,0l-.09,0h0l-.18-.06h0L407.17,0h-.7a.16.16,0,0,0-.09,0,.14.14,0,0,0-.09,0s-.06,0-.09,0l-.09,0s-.06,0-.09,0l-.09,0s-.06,0-.09.06-.07,0-.1.06l-.09.06s-.06,0-.09.06,0,0-.06,0l0,0-.09.1-.06.06s-.06.06-.06.09l-.06.06s0,.06-.06.09,0,.06-.06.09,0,.06-.07.09,0,.06-.06.09a.16.16,0,0,0,0,.09s0,.06,0,.09,0,.07,0,.1,0,.06,0,.09,0,.06,0,.09,0,.06,0,.12v.73l.06.18s0,.07,0,.1,0,.06,0,.09,0,.06,0,.09S405,3,405,3s0,.06.07.09,0,.06.06.09,0,.06.06.09,0,.06.06.09,0,0,0,.06l13.11,16.4H401.87a.21.21,0,0,0-.12,0,.17.17,0,0,0-.1,0s-.06,0-.12,0-.06,0-.09,0-.06,0-.09,0-.06,0-.09,0-.06,0-.09.06l-.09.06s-.06,0-.06.06-.06,0-.09.06-.07,0-.07.08-.06.06-.09.06l-.06.06s0,.06-.06.06-.06.06-.06.09l0,0a0,0,0,0,1,0,0h0s0,.06-.06.09l0,.06s0,.06-.07.09,0,.06,0,.09,0,.07,0,.1,0,.06,0,.09,0,.06,0,.09,0,.06,0,.09a.08.08,0,0,1,0,.09.13.13,0,0,1,0,.12v.61a.24.24,0,0,0,0,.12.12.12,0,0,0,0,.09s0,.07,0,.13,0,.06,0,.09,0,.06,0,.09,0,.06,0,.09,0,.06.07.09,0,.06.06.09,0,.06.06.06,0,.06.06.09,0,.06.06.06.06.07.06.1l.06.06s.06,0,.06.06.06.06.09.06l0,0,47.23,34.36-8.48,55.7v0h0v0a.29.29,0,0,1,0,.18v.37a.27.27,0,0,0,0,.12.14.14,0,0,0,0,.09s0,.09,0,.12,0,.06,0,.06,0,.06,0,.09,0,.06,0,.09,0,.07,0,.1,0,.06.06.09l0,.06s0,.06.06.09,0,0,0,.06l.1.09.06.06.09.09s.06,0,.06.06.06.06.09.06.06.07.09.07,0,0,.06,0l.15.09h0l.22.09s0,0,.06,0a.37.37,0,0,0,.15,0l.18.06h0l.28,0h0a.5.5,0,0,0,.24,0H442a2.07,2.07,0,0,0,.49-.12,0,0,0,0,0,0,0,.72.72,0,0,0,.21-.12l0,0c.06,0,.12-.1.19-.13s0,0,.06,0,.12-.09.18-.15l0,0a.65.65,0,0,0,.15-.18h0a1.28,1.28,0,0,0,.15-.25v0l15-30,49.76-21.64a0,0,0,0,0,0,0s.09,0,.12-.06h0l0,0,.09-.06s0,0,.06,0l0,0,.06-.06h0l.07-.06.06-.07h0a0,0,0,0,0,0,0l0,0,0,0,.06-.06.06-.06,0,0,.06-.06h0l.06-.06v0a.16.16,0,0,0,0-.09.06.06,0,0,1,0-.06h0s0-.06,0-.09a.09.09,0,0,1,0-.07h0s0-.06,0-.09h0v-.06h0l9.24-29.23,35.38,12.13h.27c.07,0,.13,0,.19,0s0,0,.06,0,.12,0,.18-.06,0,0,.06,0l.22-.09h0a.94.94,0,0,0,.18-.12l.06-.06.12-.09.06-.06.15-.16,0,0A.47.47,0,0,0,555.83,43.81Zm-38.63-20L506.71,57,491,37.77ZM411.65,5l53.54,9.57-15.3,38.26Zm91.22,53.84-49.45-3.81,15.24-38ZM458.48,80.36l-5.3-21.18,45.91,3.53ZM454.88,83l-9.14,18.29,5.24-34ZM439.34,46.22,408.57,23.84h12.87Zm82.5-23.48,26.15,17L520,28.5Z"/><g id="Group_23" data-name="Group 23"><g id="CORREOS_" data-name="CORREOS " class="cls-2"><g class="cls-2"><path class="cls-1" d="M37.68,23.48a15.53,15.53,0,0,0-7.44-2,14.57,14.57,0,0,0-7.72,2.12A15,15,0,0,0,17,29.4a17.24,17.24,0,0,0-2,8.28A17.24,17.24,0,0,0,17,46a15,15,0,0,0,5.48,5.84,14.57,14.57,0,0,0,7.72,2.12,16.9,16.9,0,0,0,7.2-1.76,22.62,22.62,0,0,0,6.72-4.8l8.56,9.2A34.14,34.14,0,0,1,41.88,64.2a30.1,30.1,0,0,1-27.48-1A28,28,0,0,1,3.84,52.72,29.14,29.14,0,0,1,0,37.84a27.95,27.95,0,0,1,14.68-25,31.89,31.89,0,0,1,27.64-1.16,30.65,30.65,0,0,1,10.32,7.08L44.16,29A20.87,20.87,0,0,0,37.68,23.48Z"/><path class="cls-1" d="M96.2,12.8a27.89,27.89,0,0,1,14.84,25A28.38,28.38,0,0,1,96.2,63.2,31.34,31.34,0,0,1,80.72,67a31.64,31.64,0,0,1-15.48-3.8A28.18,28.18,0,0,1,54.36,52.76a28.68,28.68,0,0,1-4-14.92,27.89,27.89,0,0,1,14.84-25A32,32,0,0,1,80.72,9,32,32,0,0,1,96.2,12.8Zm-23,10.8a15.63,15.63,0,0,0-5.64,6,17.08,17.08,0,0,0-2.08,8.36,17.06,17.06,0,0,0,2.12,8.44,16.28,16.28,0,0,0,5.64,6,14.2,14.2,0,0,0,7.68,2.2,14,14,0,0,0,7.64-2.2,15.49,15.49,0,0,0,5.48-6,17.88,17.88,0,0,0,2-8.44,17.7,17.7,0,0,0-2-8.36,15.17,15.17,0,0,0-5.48-6,14.22,14.22,0,0,0-7.64-2.16A14.61,14.61,0,0,0,73.16,23.6Z"/><path class="cls-1" d="M148,66l-8.16-15.52H129V66H114.32V9.92h25.2q11.11,0,17.24,5.16t6.12,14.52a22.18,22.18,0,0,1-2.56,10.92,17.74,17.74,0,0,1-7.44,7.16L164.56,66ZM129,38.8H139.6a9.9,9.9,0,0,0,6.92-2.24A8.37,8.37,0,0,0,149,30.08a8,8,0,0,0-2.44-6.28,10,10,0,0,0-6.92-2.2H129Z"/><path class="cls-1" d="M201.92,66l-8.16-15.52H182.88V66H168.24V9.92h25.2q11.12,0,17.24,5.16T216.8,29.6a22.18,22.18,0,0,1-2.56,10.92,17.74,17.74,0,0,1-7.44,7.16L218.48,66Zm-19-27.2h10.64a9.9,9.9,0,0,0,6.92-2.24,8.37,8.37,0,0,0,2.44-6.48,8,8,0,0,0-2.44-6.28,10,10,0,0,0-6.92-2.2H182.88Z"/><path class="cls-1" d="M222.16,9.92H266.4V21.6H236.8V32.08h26.72v11.6l-26.72.08V54.32h30.4V66h-45Z"/><path class="cls-1" d="M314.36,12.8a27.89,27.89,0,0,1,14.84,25A28.38,28.38,0,0,1,314.36,63.2a33.28,33.28,0,0,1-31,0,28.11,28.11,0,0,1-10.88-10.48,28.68,28.68,0,0,1-4-14.92,27.89,27.89,0,0,1,14.84-25,33.75,33.75,0,0,1,31,0Zm-23,10.8a15.49,15.49,0,0,0-5.64,6,17.08,17.08,0,0,0-2.08,8.36,17,17,0,0,0,2.12,8.44,16.28,16.28,0,0,0,5.64,6,14.15,14.15,0,0,0,7.68,2.2,14,14,0,0,0,7.64-2.2,15.57,15.57,0,0,0,5.48-6,17.88,17.88,0,0,0,2-8.44,17.7,17.7,0,0,0-2-8.36,15.25,15.25,0,0,0-5.48-6A14.22,14.22,0,0,0,299,21.44,14.59,14.59,0,0,0,291.32,23.6Z"/><path class="cls-1" d="M361.56,22.48A28.19,28.19,0,0,0,353,20.8a7.84,7.84,0,0,0-4.28,1,3.26,3.26,0,0,0-1.56,2.92,4,4,0,0,0,1.36,3.08,10.1,10.1,0,0,0,3.36,2q2,.76,5.92,2a77.58,77.58,0,0,1,9.64,3.36A16.93,16.93,0,0,1,374,40.28a14.35,14.35,0,0,1,2.72,9.08,15.54,15.54,0,0,1-3,9.56,18,18,0,0,1-8.12,6,31.61,31.61,0,0,1-11.48,2,41.4,41.4,0,0,1-13.88-2.44,37.92,37.92,0,0,1-12-6.68L334,46.32a35.14,35.14,0,0,0,10,6.16,27.36,27.36,0,0,0,10.28,2.4,9.56,9.56,0,0,0,5.16-1.2,3.92,3.92,0,0,0,1.88-3.52A4.16,4.16,0,0,0,360,47a10.49,10.49,0,0,0-3.52-2c-1.42-.5-3.4-1.11-6-1.8A74.22,74.22,0,0,1,341,39.88a16.77,16.77,0,0,1-6.44-5q-2.68-3.32-2.68-8.84A15.45,15.45,0,0,1,334.6,17a17.62,17.62,0,0,1,7.84-6,30.5,30.5,0,0,1,11.8-2.12,43.08,43.08,0,0,1,12,1.72,39.75,39.75,0,0,1,10.4,4.6L371.12,26.8A49.46,49.46,0,0,0,361.56,22.48Z"/></g></g><g id="DE_COSTA_RICA" data-name="DE COSTA RICA" class="cls-2"><g class="cls-2"><path class="cls-1" d="M33.39,80.15A16.19,16.19,0,0,1,40,86.33a18.86,18.86,0,0,1,0,18.27,16.14,16.14,0,0,1-6.7,6.2,21.6,21.6,0,0,1-9.93,2.2H8.56V78h15.1A20.74,20.74,0,0,1,33.39,80.15Zm-4.78,24.2a8.5,8.5,0,0,0,3.2-3.55A11.52,11.52,0,0,0,33,95.55a11.17,11.17,0,0,0-1.22-5.3,9,9,0,0,0-3.38-3.57,9.43,9.43,0,0,0-4.9-1.28H17.71v20.2h6.2A8.88,8.88,0,0,0,28.61,104.35Z"/><path class="cls-1" d="M44.36,78H72v7.3H53.51V91.8h16.7v7.25l-16.7,0v6.6h19V113H44.36Z"/><path class="cls-1" d="M105.51,86.43a9.72,9.72,0,0,0-4.65-1.28A9,9,0,0,0,96,86.48a9.33,9.33,0,0,0-3.42,3.65,11.34,11.34,0,0,0,0,10.35A9.4,9.4,0,0,0,96,104.13a9.13,9.13,0,0,0,4.83,1.32,10.68,10.68,0,0,0,4.5-1.1,14.19,14.19,0,0,0,4.2-3l5.35,5.75a21.5,21.5,0,0,1-6.78,4.78A18.82,18.82,0,0,1,91,111.25a17.51,17.51,0,0,1-6.6-6.55A18.25,18.25,0,0,1,82,95.4a17.48,17.48,0,0,1,9.17-15.65,19.51,19.51,0,0,1,9.58-2.35,19.3,19.3,0,0,1,7.7,1.63,19,19,0,0,1,6.45,4.42l-5.3,6.4A13.13,13.13,0,0,0,105.51,86.43Z"/><path class="cls-1" d="M142.08,79.75a17.45,17.45,0,0,1,9.28,15.65,17.76,17.76,0,0,1-9.28,15.85,19.59,19.59,0,0,1-9.67,2.4,19.83,19.83,0,0,1-9.68-2.37,17.69,17.69,0,0,1-6.8-6.55,18,18,0,0,1-2.47-9.33,17.44,17.44,0,0,1,2.47-9.2,17.66,17.66,0,0,1,6.8-6.45,21.09,21.09,0,0,1,19.35,0Zm-14.4,6.75a9.66,9.66,0,0,0-3.52,3.73,11.18,11.18,0,0,0,0,10.5,10.27,10.27,0,0,0,3.53,3.75,8.9,8.9,0,0,0,4.8,1.37,8.8,8.8,0,0,0,4.77-1.37,9.78,9.78,0,0,0,3.43-3.75A11.24,11.24,0,0,0,142,95.45a11.05,11.05,0,0,0-1.25-5.22,9.51,9.51,0,0,0-3.43-3.73,8.87,8.87,0,0,0-4.77-1.35A9.15,9.15,0,0,0,127.68,86.5Z"/><path class="cls-1" d="M171.58,85.8a17.55,17.55,0,0,0-5.32-1,4.9,4.9,0,0,0-2.68.63,2,2,0,0,0-1,1.82,2.5,2.5,0,0,0,.85,1.93,6.54,6.54,0,0,0,2.1,1.25c.83.31,2.06.72,3.7,1.22a48,48,0,0,1,6,2.1,10.57,10.57,0,0,1,4.08,3.23,9,9,0,0,1,1.7,5.67,9.74,9.74,0,0,1-1.85,6,11.24,11.24,0,0,1-5.08,3.72,19.76,19.76,0,0,1-7.17,1.25,26.15,26.15,0,0,1-8.68-1.52,23.77,23.77,0,0,1-7.47-4.18l3.55-7.15a22,22,0,0,0,6.27,3.85,17.15,17.15,0,0,0,6.43,1.5,6,6,0,0,0,3.22-.75,2.45,2.45,0,0,0,1.18-2.2,2.57,2.57,0,0,0-.88-2,6.28,6.28,0,0,0-2.2-1.27c-.88-.32-2.12-.7-3.72-1.13a46.72,46.72,0,0,1-5.95-2,10.65,10.65,0,0,1-4-3.1A8.54,8.54,0,0,1,153,88.05a9.63,9.63,0,0,1,1.72-5.7,11,11,0,0,1,4.9-3.77A19,19,0,0,1,167,77.25a26.67,26.67,0,0,1,7.5,1.08A24.61,24.61,0,0,1,181,81.2l-3.45,7.3A30.79,30.79,0,0,0,171.58,85.8Z"/><path class="cls-1" d="M180.16,78h30.05V85.5h-10.5V113h-9.15V85.5h-10.4Z"/><path class="cls-1" d="M233.41,113l-2.4-6.2H215.86l-2.45,6.2H204l15.05-35h9.4L243.16,113Zm-14.8-13.2h9.7l-4.8-12.5Z"/><path class="cls-1" d="M273.46,113l-5.1-9.7h-6.8V113h-9.15V78h15.75q6.94,0,10.77,3.23t3.83,9.07a13.93,13.93,0,0,1-1.6,6.83,11.15,11.15,0,0,1-4.65,4.47l7.3,11.45Zm-11.9-17h6.65a6.18,6.18,0,0,0,4.32-1.4,5.2,5.2,0,0,0,1.53-4,5,5,0,0,0-1.53-3.92,6.23,6.23,0,0,0-4.32-1.38h-6.65Z"/><path class="cls-1" d="M286.11,78h9.15V113h-9.15Z"/><path class="cls-1" d="M320.86,86.43a9.72,9.72,0,0,0-4.65-1.28,9,9,0,0,0-4.83,1.33A9.33,9.33,0,0,0,308,90.13a11.34,11.34,0,0,0,0,10.35,9.4,9.4,0,0,0,3.42,3.65,9.13,9.13,0,0,0,4.83,1.32,10.68,10.68,0,0,0,4.5-1.1,14.32,14.32,0,0,0,4.2-3l5.34,5.75a21.34,21.34,0,0,1-6.77,4.78,18.84,18.84,0,0,1-17.18-.63,17.42,17.42,0,0,1-6.59-6.55,18.26,18.26,0,0,1-2.41-9.3,17.46,17.46,0,0,1,9.18-15.65,19.5,19.5,0,0,1,9.57-2.35,19.27,19.27,0,0,1,7.7,1.63,19,19,0,0,1,6.46,4.42l-5.3,6.4A13.25,13.25,0,0,0,320.86,86.43Z"/><path class="cls-1" d="M357,113l-2.4-6.2H339.46L337,113h-9.4l15-35h9.4L366.75,113ZM342.21,99.8h9.69l-4.8-12.5Z"/></g></g></g></g></g></g></svg>